# xmcd
#
# Track frame offsets:
#	150
#	24825
#	73849
#	105858
#	139871
#	171217
#	237386
#	274144
#
# Disc length: 4106 seconds
#
# Revision: 1
# Processed by: cddbd v1.5.2PL0 Copyright (c) Steve Scherf et al.
# Submitted via: audiograbber 1.83.01
#
DISCID=68100808
DTITLE=Grateful Dead - 93-01-24 Oakland Coliseum Arena, Oakland CA
DYEAR=1900
DGENRE=
TTITLE0=Jack Straw
TTITLE1=Sugaree
TTITLE2=Walkin' Blues
TTITLE3=Loser
TTITLE4=Queen Jane Approximately
TTITLE5=Bird Song
TTITLE6=Playing In The Band
TTITLE7=Crazy Fingers
EXTD=
EXTT0=
EXTT1=
EXTT2=
EXTT3=
EXTT4=
EXTT5=
EXTT6=
EXTT7=
PLAYORDER=
